<svg width="32" height="32" viewBox="0 0 32 32" fill="none" xmlns="http://www.w3.org/2000/svg">
<path d="M16.0041 4C13.5749 6.395 13.5594 10.185 16.1416 12.585L19.6687 15.998L17.0336 18.5C17.9647 19.4051 18.8415 20.748 19.1011 22C19.3607 23.252 19.2333 24.5502 18.735 25.7326L27.7121 16.67C27.8034 16.5818 27.8758 16.477 27.9252 16.3617C27.9746 16.2464 28 16.1228 28 15.998C28 15.8732 27.9746 15.7496 27.9252 15.6343C27.8758 15.519 27.8034 15.4142 27.7121 15.326L16.0041 4ZM13.4156 6.5L4.28789 15.327C4.19662 15.4152 4.12422 15.52 4.07482 15.6353C4.02543 15.7506 4 15.8742 4 15.999C4 16.1238 4.02543 16.2474 4.07482 16.3627C4.12422 16.478 4.19662 16.5828 4.28789 16.671C8.19537 20.44 12.0925 24.244 16 28C18.3724 25.702 18.4758 21.904 15.9173 19.467L12.3303 15.998L14.9662 12.9481C12.9835 10.9931 12.4139 8.832 13.4156 6.5Z" fill="#fff"/>
</svg>
